/* XPM */
static char *_333996ee9f64401a9e3b849df34d007edaWCx3dDp8gP5FD[] = {
/* columns rows colors chars-per-pixel */
"60 60 135 2 ",
"   c None",
".  c #030303",
"X  c #060708",
"o  c #070809",
"O  c #0A0B0D",
"+  c #0D0E11",
"@  c #0F1114",
"#  c #111316",
"$  c #14161A",
"%  c #16191D",
"&  c #191B1D",
"*  c #171B20",
"=  c #1A1E22",
"-  c #1D2125",
";  c #1E222A",
":  c #212326",
">  c #22252A",
",  c #26292D",
"<  c #292B2D",
"1  c #252A31",
"2  c #2A2E33",
"3  c #2D3135",
"4  c #2E3339",
"5  c #323335",
"6  c #32363C",
"7  c #34383E",
"8  c #3B3B3D",
"9  c #363A41",
"0  c #393E43",
"q  c #3D4146",
"w  c #3E4349",
"e  c #434445",
"r  c #42464B",
"t  c #45494E",
"y  c #4B4C4C",
"u  c #474B50",
"i  c #494D52",
"p  c #4E5156",
"a  c #515355",
"s  c #535659",
"d  c #525459",
"f  c #54565A",
"g  c #55575A",
"h  c #55575B",
"j  c #54575C",
"k  c #535559",
"l  c #56595C",
"z  c #56595D",
"x  c #575A5D",
"c  c #56595C",
"v  c #585859",
"b  c #595A5B",
"n  c #5A5A5B",
"m  c #585A5D",
"M  c #585A5E",
"N  c #595B5E",
"B  c #595B5F",
"V  c #5A5C5E",
"C  c #5A5C5F",
"Z  c #5C5D5F",
"A  c #5A5B5E",
"S  c #5B5D60",
"D  c #5D5E61",
"F  c #5D5F62",
"G  c #5D5F63",
"H  c #5C5E61",
"J  c #5F6061",
"K  c #5E6062",
"L  c #5E6064",
"P  c #5F6063",
"I  c #606162",
"U  c #606164",
"Y  c #606264",
"T  c #616265",
"R  c #626366",
"E  c #636464",
"W  c #626466",
"Q  c #636466",
"!  c #646464",
"~  c #666667",
"^  c #626365",
"/  c #656668",
"(  c #656669",
")  c #666769",
"_  c #656668",
"`  c #676869",
"'  c #66686A",
"]  c #67686A",
"[  c #67686A",
"{  c #68696A",
"}  c #69696B",
"|  c gray42",
" . c #696A6C",
".. c #6A6B6C",
"X. c #6B6C6D",
"o. c #6C6C6D",
"O. c #6D6D6D",
"+. c #6C6D6E",
"@. c #6D6D6E",
"#. c #6D6E6E",
"$. c #6D6E6F",
"%. c #6E6E6F",
"&. c #6E6F6F",
"*. c #6B6C6D",
"=. c #6F6F70",
"-. c #6F6F70",
";. c #6E7071",
":. c #6F7071",
">. c #6F7071",
",. c gray44",
"<. c #707071",
"1. c #707171",
"2. c #717171",
"3. c #707172",
"4. c #727272",
"5. c #727273",
"6. c gray45",
"7. c #737374",
"8. c #767676",
"9. c #777777",
"0. c #727373",
"q. c #777778",
"w. c #767778",
"e. c #777879",
"r. c #77797A",
"t. c #787979",
"y. c #797979",
"u. c gray48",
"i. c #7B7B7C",
"p. c #7F7F80",
"a. c #7F8080",
"s. c #808182",
"d. c #818282",
"f. c #838383",
"g. c #8B8B8B",
/* pixels */
"        # # $ % % #   O O O O O O @ @ # # O       o . + @ O . . . o @ + .         . O O + @ @ @ @ + + + + o             ",
"    4 r p w r u u q # - > > 1 2 4 7 7 7 7 4 -     $ > 9 9 = > , = & 9 7 > O     O - 1 4 7 7 9 9 0 9 9 7 7 = =           ",
"  4 j s.s.+.d u t w = ; 4 7 7 9 0 q w r t u p < % 1 u f i : r u r , t r 9 , O O = 4 9 w t p p i u u u t 0 > % $ # $     ",
"# r e.9.4.4./ u r w - 2 7 0 r t u d M D T { =.b - i +.4.! < x +.C e d u r 9 & O 4 w u u p f a p d C f t 9 > $ 2 6 , $   ",
"# p 7.4.4.4.` i r w = 6 w u u p S W W / +.+./ K < a =.4.+.5 t b a I T p u 0 , $ q u p K ..4.4.+.X.{ ` i 0 - q 4.:.t ,   ",
"@ r +.+.T M d u r 4 : r u u p D W M D u.u.q.+.Z : r d M T f y b M d u u u w 1 & t x +.4.+.4.4.=.4.4.4.C r $ < ! / a 2   ",
"+ 4 i M d i u t 6 # 6 t u i x M d d M L ` 4.4.{ : 6 T ..4.+.+.D u t t u u 0 > % u / 4.../ +.4.4.4.9.u.W < # % a x w % . ",
"X ; 7 t u u t < % $ 7 r u u t t i K 4.7.i.s.9.I & & i +.4.T C M W =.7.L r 2 = = u 4.4.4.=.4.+.9.i.f.! < > 4 ; > 0 = * X ",
"O $ : q r 7 : $ * $ 3 t u K ..{ { M +.u.f.u.4.e * * = a +.{ 4.9.4./ C r > # ; ; e u.4./ 7.u.f.g.+.8 $ > 9 9 4 = $ = 1 O ",
"O $ = 4 6 7 q 0 6 - $ r u C i.9.4.K ..X.4.9.I $ @ # O & a / 9.9.=.x 7 = = $ + = > M s.s.f.i.Z 5 - - > r t u t w 7 4 4 O ",
". & : 4 s { X.+.+.C 5 : r p i.f.9.W D X.s.9.2 $ , 2 , = & y 4.9.l 4 - 1 4 4 - + ; ; 5 e 5 : > > & = r i i u u u t 9 4 O ",
". # > 4 4 a u.g.g.i.+.q & 0 T g.g.i.u.f.u.5 = 2 0 w w 7 > > , < 4 1 4 7 7 7 3 % $ $ & , 4 7 7 7 > 5 M D D M f i q 9 7 O ",
"o > 9 u u 8 y 4.9.+.T x : % , b s.g.i.a > > 4 9 q u t 3 q u u u r 9 7 7 7 7 4 = = 4 0 w w w 0 6 < { :.4.4.=.M w 0 r q O ",
"+ 4 d 9.4.S r i M p p i 0 $ = = < 5 < , 4 q r 0 r u 8 8 T { T u 0 9 7 9 9 7 : 1 w t u t u u 0 , a 9.4.4.4.T u r u u r + ",
"+ r 7.{ T C t 0 u u u u t & = & $ - 7 0 r u u r u u 3 I 9.4.T t r w 9 r 0 2 > t u u t t u r 7 < 4.6.4.4.W u i D T u w O ",
"O r f u p t 6 q u u u u t > , 7 > > 0 t u u u u u u 5 { i.4.M u u r t u 9 , 6 t u u t t u r 2 e 9.4.4.D t u M W K t q O ",
". = 2 7 6 , 0 u u u u u r > > 7 > , r u u p x C S K y 4.9.+.a u u i d d 0 > 5 u u t r q 0 0 4 y 9.+.+.x d u a t u u 0 o ",
"o $ > , 4 r u u u u u u 9 - > 7 , > r u d ! 4.4.4.4.Z { 4.{ i u p f / X.u , 4 u r w r p S ..M 8 u.7...f x { 4.S ! p : . ",
"O $ 0 t u u u u u u t q 2 $ 2 7 4 = r i M { / =.4.4.! 4.9.` p f D { 4.4.d 5 6 M f W 7.i.i.i.4.r 8 ..T ! ..+.4./ f 5 $   ",
"+ % & 9 w r t t r 0 9 2 = > 7 7 7 > 0 i S +.{ X.4.4.{ { s.4.{ +.4.4.4.4.T q 8 ..=.9.7.4.4.4.4.{ i 5 q s Z { 4.4.a %     ",
"  ; $ $ > 2 4 4 2 1 > > 6 t t w 9 4 7 i D 4.4.4.4.u.9.a s.9.4.4.6.4.+.4.{ u 2 +.4.4.4.4.4.4.4.4.+.S r 5 & < 8 5 # #     ",
"    ; = % # @ $ = < 0 t u u u t 9 7 6 p { 9.9.u.f.s.a & y s.s.s.s.i.i.9.I 5 % ! ....4.+.D X.4.4.+.4...y $ * # $ * % #   ",
"        ; ; = 7 t u u u u u u q 7 9 7 t +.i.i.4.i , = > > 8 e y y e 8 < % $ % b 4.4.4.4.` +.4.4.4.4.+.5 $ - 1 1 > > > o ",
"          % 2 u u p p p p p t 9 0 r r 7 7 5 2 = > 4 7 7 1 1 > ; > , 0 a 5 = = 8 u.9.4.4.4...4.9.i.4.e = 3 7 7 4 > 3 4 O ",
"        % : q f M D D D K M t q t u u t 0 4 % > 7 q t q 0 q q r p ..i.i.u.y & : s f.f.s.i.i.f.g.+.5 = 6 7 9 9 4 4 7 4 O ",
"        7 4 i K W ..4.4.+.x u u p D a u u 5 = 9 t u u r u u u M e.u.4.+.4.u.r 2 , 5 M 4.9.4.s 5 $ # 4 9 0 r 0 7 7 9 6 O ",
"    = 3 r 6 s 9.i.s.u.9.+.a u x { / p f T < q u u u u u u u M u.7.+.W u { 7.4.< 7 4 1 , , , 1 4 > > 9 r t t 9 9 w r 9 O ",
"  # 1 q u q 8 u.f.s.9.4./ p K =.9.:.:.s.9.< u u u u u u t p { 4.4.X.! d +.4.u.5 q r r w q 9 7 7 = 7 r u u t 9 r u u w O ",
". = 6 t u d 8 Z 9.4.4.4.T T 4.4.9.i.i.s.+., u u u r 0 9 9 w p x ..4.{ ` / T 9.6 q u u i u t r 4 : t t u u r q u u r w O ",
"o , w u d T Z 8 W 4.4.4.` 4.4.4.4.9.f.i.5 - r 0 9 7 7 0 t p M { 4.+.u r p K 9.5 0 p I ` D p u 4 2 u r u u w w u u r 9 O ",
"+ 4 t u x ` 4.y y u.9.9.4.4.X.9.s.g.+.< $ $ 2 4 9 0 9 q i { 4.4.4./ q 9 p +.9.2 w d 4.4.4.M t , 3 t t u u t u d i t 7 O ",
"@ 9 t r t D 4.+.8 ! i.=.4.4.9.f.i.a = = $ @ 2 4 9 r t u p / / T D d t r u { I 2 r x 4.4.{ d r , 5 t t u u d / T x q 6 O ",
"# 0 t r i W 4.4.! 8 +.i.f.g.s.Z 2 # < t 9 & , r u u u u u d S L K D p r u D 0 7 u ! 4.{ C r 9 2 2 r u u u { 4.K M t 4 O ",
"O 7 t t u S X.4.+.I 8 y a q : > 4 > 0 / x - $ r u u u u u { 9.u.u.9.C i p a , q f +.D p u t q 4 = q u u l 4.4.` / a =   ",
"o 2 r w t K 4.4.+.X.{ b i 8 = 7 7 , 3 D r - : 5 u u u u u / 4.+.4.u.{ x K 2 6 u ..W d f x d u 6 # = 8 r M 4.u.4.a : #   ",
"O = 0 u i W 4.=.X.4.+.4.4.t > 0 9 6 - : - 9 t 2 q u u u u T 4.M T 4.+.p < & 7 T 4.:.+./ S T r = = = % : : , < : : , % . ",
"+ $ 2 r u D u.9.4.=.T i.+.q e { S u 0 7 q u u 2 = 2 0 q q f Z r e e < & * - % y 9.u.i.9.! e & % ; = 0 t r q 9 7 7 7 > . ",
"  = & 9 t d q.i.+...` s.I 5 a +.4.=.{ ! M i r > = - : 2 2 2 < , 2 7 4 = ; ; : 5 8 { 4.a 8 0 7 & = r p u u t u w 9 7 2 . ",
"  ; $ > 0 u / s.+.:.u.i.i < I ! +.4.4.+.M i t , % 4 t u u u u u u u u 7 = * y +.a 8 q r u t 9 > e { { K a t r t r 9 2 . ",
"    ; $ 2 w d i.=.9.p.C 3 e 4.4.4.u.9.T d u u < e M p u u u u u u u l / 8 : { 4.{ l i u u r 7 > +.4.4.{ D a u r r 0 2 . ",
"    ; = # 6 u W u.i.M < 8 4.u.i.i.q.{ M d u u 5 ! 4./ l i u u u i M +.:.y y 6.9.4.T u 0 r r 6 < 9.4.4.{ S p p u r q 4 . ",
"    = - 2 - 6 t b 8 $ + b i.i.4.W D C f p u u 3 ! 4.4.4./ p u u a x +.! 8 ! i.s.i.4.x w 9 9 4 6 u.4.4...C p p u r t 4 . ",
"    = 6 w r < > , - # + < +.=./ K D f a u u t 5 +.+.4.4.4.x u u a f +.I 8 4.i.u.s.9.+.d r 9 4 2 9.4.+.+.W d p u u r 2 . ",
"  % 2 0 u u u u u w 4 & o e { T x d i u u q > e 9.4.` T T d u u i d { a e +.{ 9.9.9.4.` u 0 7 : ! 4.4.4.T d i u u q > . ",
"o ; 9 t u u p d d u w 7 - # 6 r r r 0 6 : % * 8 u.4.../ T p u u u d ..e y +.` =.4.u.4.X.d u 0 , e 9.4.4.W f p u u 9 % . ",
"O 2 r u d ! 4.i.9.W p 0 7 = O $ % # o o o + % < 9./ K K I p u i d / q.8 r W +.4.4.4.4.+.d u w 7 : +.9.4./ x p u r 4 @   ",
"+ 9 u p { 4.9.9.4.{ M t 9 6 % = * $ 1 3 > * # % 9.+...+.+.a u u d T 7.5 6 u d x K T D f u t 0 7 > 8 i.6.{ M i u 0 - $   ",
"@ q u p T T K S x p d p w 7 , @ $ 4 0 9 4 4 q , Z u.4.4.+.p u u x ..X.0 & 0 t u u u t r w 9 7 7 ; $ s 4.+.x u w 4 $ -   ",
"o q u u p u t r q w t u t 9 4 + > q q q 2 7 M a 5 s.u./ f u u u u t 8 $ O % = > 4 9 9 7 7 7 7 4 % = & e K d u 9 - %     ",
". 7 u u w 9 7 7 7 7 0 u u 0 4 % 2 r u u 9 2 r D < y M u t r 0 4 : & 5 Z +.4.I : o # = 1 4 6 6 : # > 2 > , 6 7 > #       ",
"X < u u q 9 9 9 9 w t u u 0 4 * , u C X.D 0 q C i = $ % $ # + O e { +.q.i./ x t , @ $ @ @ # # # q d d r 4 > - - $ $     ",
"O % r u u u t u d M D p t 9 4 * 2 p / s.7.t u D S q $ = - ; = < X.T K D / f p u 0 $ = ; % % % 8 i.4.! r 4 r w 7 2 @ *   ",
"  $ 2 t u u p W s.u.+.a r 7 4 % > d ! ..+.u S ..D 7 $ ; > ; = 2 d u u u r i u t 9 > % $ 5 5 % b i.=.u 4 u M T d 9 - @   ",
"  = $ 9 u u u K i.7.K u 0 7 2 @ & C W L =./ :.q.u > $ - % # # % : e p u r w w r 9 , O 8 T t > I u.4.u r S D T / t 3 @   ",
"    # , q u u l 4.D u r 7 4 = # % a 4.{ 4.u.e.d 4 # # : 8 2 q r 5 % a u w 7 4 7 7 ; % l u q > I i.4.x w M D x / l 4 %   ",
"      $ 4 0 r i d u w 9 4 = @ ; - < u.s.s.=.u 4 % = Z s.s.f 0 0 4 = < u t 7 1 2 2 * 3 p w 9 > y s.=.M i u K D ..u 1 =   ",
"      $ % 2 7 0 t q 7 2 $ @ = $ * = 5 f u 9 1 $ & +.9.u.u.T 0 7 7 , $ 0 r 0 7 7 1 # 4 t 0 7 & : 7.X.D M t d ! ,.t > =   ",
"        @ * > 1 4 2 & @ % ; - e $ - = $ % $ @ $ 5 X.D a u t t t w 2 + - 4 7 4 2 = O > q 4 , + @ s { K a d T f W r 1     ",
"          + $ $ # + $ =     & 8 $           = = > r w r r r r 9 3 - O + + $ $ # +     # $ @ @ $ $ < 5 2 e b 0 4 : #     ",
"            . . . . .       . . .             . o O O O O O O o X . .                 . . .   X . . . . . . . . .       "
};
